<svg width="26" height="33" viewBox="0 0 26 33" fill="none" xmlns="http://www.w3.org/2000/svg">
<g clip-path="url(#clip0_1238_581)">
<path d="M12.9998 19.6667C16.4927 19.6667 19.3332 16.8262 19.3332 13.3333C19.3332 9.8405 16.4927 7 12.9998 7C9.507 7 6.6665 9.8405 6.6665 13.3333C6.6665 16.8262 9.507 19.6667 12.9998 19.6667ZM12.9998 10.1667C14.7463 10.1667 16.1665 11.5869 16.1665 13.3333C16.1665 15.0798 14.7463 16.5 12.9998 16.5C11.2534 16.5 9.83317 15.0798 9.83317 13.3333C9.83317 11.5869 11.2534 10.1667 12.9998 10.1667Z" fill="#2B2B2B"/>
<path d="M11.7487 32.0389C12.0167 32.2303 12.3378 32.3332 12.6671 32.3332C12.9963 32.3332 13.3174 32.2303 13.5854 32.0389C14.0667 31.6985 25.3796 23.5301 25.3337 13.3334C25.3337 6.34933 19.6511 0.666748 12.6671 0.666748C5.68297 0.666748 0.000383534 6.34933 0.000383534 13.3255C-0.0455331 23.5301 11.2674 31.6985 11.7487 32.0389ZM12.6671 3.83341C17.9063 3.83341 22.167 8.09416 22.167 13.3413C22.2003 20.3682 15.2194 26.6777 12.6671 28.7472C10.1163 26.6762 3.1338 20.365 3.16705 13.3334C3.16705 8.09416 7.4278 3.83341 12.6671 3.83341Z" fill="#2B2B2B"/>
</g>
<defs>
<clipPath id="clip0_1238_581">
<rect width="26" height="32" fill="white" transform="translate(0 0.5)"/>
</clipPath>
</defs>
</svg>
