<svg width="1810" height="516" viewBox="0 0 1810 516" fill="none" xmlns="http://www.w3.org/2000/svg">
<line x1="0.5" y1="516.008" x2="0.53125" y2="-22" stroke="#2B2B2B" stroke-opacity="0.3"/>
<line x1="172.5" y1="527.016" x2="172.531" y2="-10.9926" stroke="#2B2B2B" stroke-opacity="0.3"/>
<line x1="258.5" y1="538.016" x2="258.531" y2="0.00741725" stroke="#2B2B2B" stroke-opacity="0.3"/>
<line x1="344.5" y1="538.016" x2="344.531" y2="0.00741725" stroke="#2B2B2B" stroke-opacity="0.3"/>
<line x1="430.5" y1="538.016" x2="430.531" y2="0.00741725" stroke="#2B2B2B" stroke-opacity="0.3"/>
<line x1="602.5" y1="538.016" x2="602.531" y2="0.00741725" stroke="#2B2B2B" stroke-opacity="0.3"/>
<line x1="688.5" y1="538.016" x2="688.531" y2="0.00741725" stroke="#2B2B2B" stroke-opacity="0.3"/>
<line x1="774.5" y1="538.016" x2="774.531" y2="0.00741725" stroke="#2B2B2B" stroke-opacity="0.3"/>
<line x1="860.5" y1="538.016" x2="860.531" y2="0.00741725" stroke="#2B2B2B" stroke-opacity="0.3"/>
<line x1="946.5" y1="538.016" x2="946.531" y2="0.00741725" stroke="#2B2B2B" stroke-opacity="0.3"/>
<line x1="1032.5" y1="538.016" x2="1032.53" y2="0.00741725" stroke="#2B2B2B" stroke-opacity="0.3"/>
<line x1="1118.5" y1="538.016" x2="1118.53" y2="0.00741725" stroke="#2B2B2B" stroke-opacity="0.3"/>
<line x1="1204.5" y1="538.016" x2="1204.53" y2="0.00741725" stroke="#2B2B2B" stroke-opacity="0.3"/>
<line x1="1291.5" y1="538.016" x2="1291.53" y2="0.00741725" stroke="#2B2B2B" stroke-opacity="0.3"/>
<line x1="1378.5" y1="538.008" x2="1378.53" y2="-2.90423e-05" stroke="#2B2B2B" stroke-opacity="0.3"/>
<line x1="1464.5" y1="538.008" x2="1464.53" y2="-2.90423e-05" stroke="#2B2B2B" stroke-opacity="0.3"/>
<line x1="1550.5" y1="543.008" x2="1550.53" y2="4.99997" stroke="#2B2B2B" stroke-opacity="0.3"/>
<line x1="1636.5" y1="538.008" x2="1636.53" y2="-2.90423e-05" stroke="#2B2B2B" stroke-opacity="0.3"/>
<line x1="1722.5" y1="538.008" x2="1722.53" y2="-2.90423e-05" stroke="#2B2B2B" stroke-opacity="0.3"/>
<line x1="1808.5" y1="538.008" x2="1808.53" y2="-2.90423e-05" stroke="#2B2B2B" stroke-opacity="0.3"/>
<line x1="516.5" y1="538.016" x2="516.531" y2="0.00741725" stroke="#2B2B2B" stroke-opacity="0.3"/>
<line x1="86.5" y1="529.016" x2="86.5312" y2="-8.99258" stroke="#2B2B2B" stroke-opacity="0.3"/>
</svg>
