<svg width="1920" height="516" viewBox="0 0 1920 516" fill="none" xmlns="http://www.w3.org/2000/svg">
<g clip-path="url(#clip0_1235_268)">
<line x1="73.5" y1="516.008" x2="73.5312" y2="-22" stroke="#2B2B2B" stroke-opacity="0.3"/>
<line x1="245.5" y1="527.016" x2="245.531" y2="-10.9926" stroke="#2B2B2B" stroke-opacity="0.3"/>
<line x1="331.5" y1="538.016" x2="331.531" y2="0.00741725" stroke="#2B2B2B" stroke-opacity="0.3"/>
<line x1="417.5" y1="538.016" x2="417.531" y2="0.00741725" stroke="#2B2B2B" stroke-opacity="0.3"/>
<line x1="503.5" y1="538.016" x2="503.531" y2="0.00741725" stroke="#2B2B2B" stroke-opacity="0.3"/>
<line x1="675.5" y1="538.016" x2="675.531" y2="0.00741725" stroke="#2B2B2B" stroke-opacity="0.3"/>
<line x1="761.5" y1="538.016" x2="761.531" y2="0.00741725" stroke="#2B2B2B" stroke-opacity="0.3"/>
<line x1="847.5" y1="538.016" x2="847.531" y2="0.00741725" stroke="#2B2B2B" stroke-opacity="0.3"/>
<line x1="933.5" y1="538.016" x2="933.531" y2="0.00741725" stroke="#2B2B2B" stroke-opacity="0.3"/>
<line x1="1019.5" y1="538.016" x2="1019.53" y2="0.00741725" stroke="#2B2B2B" stroke-opacity="0.3"/>
<line x1="1105.5" y1="538.016" x2="1105.53" y2="0.00741725" stroke="#2B2B2B" stroke-opacity="0.3"/>
<line x1="1191.5" y1="538.016" x2="1191.53" y2="0.00741725" stroke="#2B2B2B" stroke-opacity="0.3"/>
<line x1="1277.5" y1="538.016" x2="1277.53" y2="0.00741725" stroke="#2B2B2B" stroke-opacity="0.3"/>
<line x1="1364.5" y1="538.016" x2="1364.53" y2="0.00741725" stroke="#2B2B2B" stroke-opacity="0.3"/>
<line x1="589.5" y1="538.016" x2="589.531" y2="0.00741725" stroke="#2B2B2B" stroke-opacity="0.3"/>
<line x1="159.5" y1="529.016" x2="159.531" y2="-8.99258" stroke="#2B2B2B" stroke-opacity="0.3"/>
<line x1="73.5" y1="516.008" x2="73.5312" y2="-22" stroke="#2B2B2B" stroke-opacity="0.3"/>
<line x1="245.5" y1="527.016" x2="245.531" y2="-10.9926" stroke="#2B2B2B" stroke-opacity="0.3"/>
<line x1="331.5" y1="538.016" x2="331.531" y2="0.00741725" stroke="#2B2B2B" stroke-opacity="0.3"/>
<line x1="417.5" y1="538.016" x2="417.531" y2="0.00741725" stroke="#2B2B2B" stroke-opacity="0.3"/>
<line x1="503.5" y1="538.016" x2="503.531" y2="0.00741725" stroke="#2B2B2B" stroke-opacity="0.3"/>
<line x1="675.5" y1="538.016" x2="675.531" y2="0.00741725" stroke="#2B2B2B" stroke-opacity="0.3"/>
<line x1="761.5" y1="538.016" x2="761.531" y2="0.00741725" stroke="#2B2B2B" stroke-opacity="0.3"/>
<line x1="847.5" y1="538.016" x2="847.531" y2="0.00741725" stroke="#2B2B2B" stroke-opacity="0.3"/>
<line x1="933.5" y1="538.016" x2="933.531" y2="0.00741725" stroke="#2B2B2B" stroke-opacity="0.3"/>
<line x1="1019.5" y1="538.016" x2="1019.53" y2="0.00741725" stroke="#2B2B2B" stroke-opacity="0.3"/>
<line x1="1105.5" y1="538.016" x2="1105.53" y2="0.00741725" stroke="#2B2B2B" stroke-opacity="0.3"/>
<line x1="1191.5" y1="538.016" x2="1191.53" y2="0.00741725" stroke="#2B2B2B" stroke-opacity="0.3"/>
<line x1="1277.5" y1="538.016" x2="1277.53" y2="0.00741725" stroke="#2B2B2B" stroke-opacity="0.3"/>
<line x1="1364.5" y1="538.016" x2="1364.53" y2="0.00741725" stroke="#2B2B2B" stroke-opacity="0.3"/>
<line x1="1451.5" y1="538.008" x2="1451.53" y2="-2.90423e-05" stroke="#2B2B2B" stroke-opacity="0.3"/>
<line x1="1537.5" y1="538.008" x2="1537.53" y2="-2.90423e-05" stroke="#2B2B2B" stroke-opacity="0.3"/>
<line x1="1623.5" y1="543.008" x2="1623.53" y2="4.99997" stroke="#2B2B2B" stroke-opacity="0.3"/>
<line x1="1709.5" y1="538.008" x2="1709.53" y2="-2.90423e-05" stroke="#2B2B2B" stroke-opacity="0.3"/>
<line x1="1795.5" y1="538.008" x2="1795.53" y2="-2.90423e-05" stroke="#2B2B2B" stroke-opacity="0.3"/>
<line x1="1881.5" y1="538.008" x2="1881.53" y2="-2.90423e-05" stroke="#2B2B2B" stroke-opacity="0.3"/>
<line x1="589.5" y1="538.016" x2="589.531" y2="0.00741725" stroke="#2B2B2B" stroke-opacity="0.3"/>
<line x1="159.5" y1="529.016" x2="159.531" y2="-8.99258" stroke="#2B2B2B" stroke-opacity="0.3"/>
</g>
<defs>
<clipPath id="clip0_1235_268">
<rect width="1920" height="516" fill="white"/>
</clipPath>
</defs>
</svg>
